<?xml version="1.0" encoding="utf-8"?>
<!-- Generator: Adobe Illustrator 26.5.0, SVG Export Plug-In . SVG Version: 6.00 Build 0)  -->
<svg version="1.1" id="Layer_1" xmlns="http://www.w3.org/2000/svg" xmlns:xlink="http://www.w3.org/1999/xlink" x="0px" y="0px"
	 viewBox="0 0 62.2 62.2" style="enable-background:new 0 0 62.2 62.2;" xml:space="preserve">
<style type="text/css">
	.st0{fill:#1F1E37;}
	.st1{fill:#E84D88;}
	.st2{fill:#FDEEFF;}
	.st3{fill:#A52355;}
	.st4{fill:#E2CCAF;}
</style>
<circle class="st0" cx="31.1" cy="31.1" r="31.1"/>
<g>
	<g>
		<g>
			<path class="st1" d="M44,19.1c-1.8-1.8-4-3.3-6.1-4.4c-0.1,3.2-3.1,5.7-6.8,5.7c-3.7,0-6.7-2.5-6.8-5.7c-2.1,1.1-4.3,2.7-6.1,4.4
				c1.2,1.9,0.6,5-1.3,7.3c-0.8,1-1.8,1.6-2.8,2c0.5,10,8,9.6,17,9.6c9.1,0,16.5,0.4,17-9.6c-1-0.3-1.9-1-2.8-2
				C43.4,24.1,42.9,21,44,19.1z"/>
			<path class="st2" d="M31.1,20.4c3.7,0,6.7-2.5,6.8-5.7c-2.6-1.4-5.1-2.2-6.8-2.2c-1.7,0-4.2,0.8-6.8,2.2
				C24.4,17.8,27.4,20.4,31.1,20.4z"/>
			<path class="st2" d="M18.2,19.1c-2.4,2.4-4.1,5.2-4.1,8.1c0,0.4,0,0.8,0,1.2c1-0.3,1.9-1,2.8-2C18.8,24.1,19.4,21,18.2,19.1z"/>
			<path class="st2" d="M44,19.1c-1.2,1.9-0.6,5,1.3,7.3c0.8,1,1.8,1.6,2.8,2c0-0.4,0-0.8,0-1.2C48.2,24.3,46.5,21.5,44,19.1z"/>
			<path class="st3" d="M41.4,34.9c0,2.4-4.6,3-10.2,3s-10.2-0.5-10.2-3c0-2.4,4.9-4.6,10.2-4.6C36.5,30.4,41.4,32.6,41.4,34.9z"/>
			<path class="st4" d="M39.7,47.7H22.6c0,0,1.6-4.7,2.1-8.5c0.6-4.3,0.9-7.9,6.4-7.9c5.6,0,5.9,3.6,6.4,7.9
				C38.1,43,39.7,47.7,39.7,47.7z"/>
		</g>
	</g>
</g>
</svg>
