<?xml version="1.0" encoding="utf-8"?>
<!-- Generator: Adobe Illustrator 26.5.0, SVG Export Plug-In . SVG Version: 6.00 Build 0)  -->
<svg version="1.1" id="Layer_1" xmlns="http://www.w3.org/2000/svg" xmlns:xlink="http://www.w3.org/1999/xlink" x="0px" y="0px"
	 viewBox="0 0 200 60" style="enable-background:new 0 0 200 60;" xml:space="preserve">
<style type="text/css">
	.st0{fill:#E84D88;}
	.st1{fill:#FDEEFF;}
	.st2{fill:#A52355;}
	.st3{fill:#E2CCAF;}
	.st4{font-family:'Roboto-Light';}
	.st5{font-size:28px;}
</style>
<g>
	<g>
		<g>
			<g>
				<path class="st0" d="M44.7,17c-2.1-2-4.6-3.8-7-5.1c-0.1,3.6-3.6,6.6-7.8,6.6c-4.3,0-7.7-2.9-7.8-6.6c-2.5,1.3-5,3.1-7,5.1
					c1.4,2.1,0.7,5.8-1.5,8.4c-1,1.1-2.1,1.9-3.2,2.2c0.6,11.4,9.1,11,19.6,11c10.4,0,19,0.5,19.6-11c-1.1-0.4-2.2-1.1-3.2-2.2
					C44,22.8,43.3,19.1,44.7,17z"/>
				<path class="st1" d="M29.8,18.5c4.3,0,7.7-2.9,7.8-6.6c-3-1.6-5.9-2.5-7.8-2.5S25,10.3,22,11.9C22.1,15.5,25.6,18.5,29.8,18.5z"
					/>
				<path class="st1" d="M15,17c-2.8,2.7-4.8,6-4.8,9.3c0,0.5,0,0.9,0,1.4c1.1-0.4,2.2-1.1,3.2-2.2C15.7,22.8,16.4,19.1,15,17z"/>
				<path class="st1" d="M44.7,17c-1.4,2.1-0.7,5.8,1.5,8.4c1,1.1,2.1,1.9,3.2,2.2c0-0.4,0-0.9,0-1.4C49.5,22.9,47.5,19.7,44.7,17z"
					/>
				<path class="st2" d="M41.6,35.2c0,2.8-5.3,3.4-11.8,3.4S18.1,38,18.1,35.2c0-2.7,5.6-5.3,11.8-5.3C36,29.9,41.6,32.5,41.6,35.2z
					"/>
				<path class="st3" d="M39.7,49.9H20c0,0,1.8-5.4,2.4-9.7c0.7-5,1-9.1,7.4-9.1c6.4,0,6.8,4.1,7.4,9.1
					C37.8,44.5,39.7,49.9,39.7,49.9z"/>
			</g>
		</g>
	</g>
	<text transform="matrix(1 0 0 1 56.613 49.6192)" class="st4 st5">Mushroom</text>
</g>
</svg>
